<?xml version="1.0" encoding="utf-8"?>
<!-- Generator: Adobe Illustrator 17.1.0, SVG Export Plug-In . SVG Version: 6.00 Build 0)  -->
<!DOCTYPE svg PUBLIC "-//W3C//DTD SVG 1.1//EN" "http://www.w3.org/Graphics/SVG/1.1/DTD/svg11.dtd">
<svg version="1.1" id="Layer_1" xmlns="http://www.w3.org/2000/svg" xmlns:xlink="http://www.w3.org/1999/xlink" x="0px" y="0px"
	 viewBox="0 0 92 36" enable-background="new 0 0 92 36" xml:space="preserve">
<g>
	<g>
		<path fill="#343433" d="M3.8,32.4l-3.3-8.7l1.8-0.5l2.1,5.5l0.4,0.9l0.4-0.9l2.1-5.5l1.8,0.5l-3.3,8.7H3.8z"/>
		<path fill="#343433" d="M13.5,32.6c-1.1,0-2-0.3-2.5-0.8c-0.6-0.5-0.9-1.4-0.9-2.5v-5.6l1.9-0.6v5.7c0,0.3,0,0.6,0,0.8
			c0,0.2,0.1,0.4,0.2,0.6c0.1,0.2,0.3,0.3,0.5,0.4c0.2,0.1,0.5,0.1,0.8,0.1c0.2,0,0.5,0,0.7-0.1c0.2-0.1,0.4-0.2,0.6-0.3
			c0.2-0.1,0.4-0.3,0.6-0.5c0.2-0.2,0.3-0.3,0.5-0.5v-3.8v-1.9l1.9-0.6v2.2v4.9c0,0.5,0,0.8,0.1,1.1c0,0.1,0.1,0.3,0.2,0.5
			c0.1,0.2,0.1,0.3,0.2,0.5h-2.1c-0.1-0.1-0.2-0.3-0.2-0.5C16,31.7,16,31.5,16,31.4c-0.3,0.4-0.7,0.7-1.1,0.9
			C14.5,32.5,14,32.6,13.5,32.6z"/>
		<path fill="#343433" d="M35.9,24.3c0.1-0.1,0.3-0.3,0.4-0.4c0.2-0.1,0.3-0.2,0.5-0.3c0.2-0.1,0.4-0.2,0.6-0.2
			c0.2-0.1,0.4-0.1,0.6-0.1c0.6,0,1.1,0.1,1.5,0.3c0.4,0.2,0.8,0.5,1.1,1c0.4-0.4,0.8-0.7,1.2-0.9c0.4-0.2,0.9-0.3,1.5-0.3
			c0.5,0,1,0.1,1.4,0.2c0.4,0.1,0.8,0.4,1.1,0.6c0.3,0.3,0.5,0.6,0.7,1c0.2,0.4,0.2,0.8,0.2,1.3v6h-1.9v-5.8c0-0.5-0.1-0.9-0.3-1.2
			c-0.2-0.3-0.6-0.4-1.2-0.4c-0.4,0-0.7,0.1-1,0.3c-0.3,0.2-0.6,0.4-0.8,0.6v6.6h-1.9v-6c0-0.5-0.1-0.9-0.4-1.1
			c-0.3-0.2-0.6-0.3-1.1-0.3c-0.4,0-0.8,0.1-1.1,0.2c-0.4,0.2-0.7,0.4-1,0.7v6.6h-1.9v-6.8c0-0.3,0-0.6-0.1-0.8
			c0-0.2-0.1-0.5-0.3-0.8l1.7-0.8c0.1,0.2,0.2,0.3,0.2,0.5c0.1,0.2,0.1,0.4,0.2,0.6H35.9z"/>
		<path fill="#343433" d="M50.3,28.5c0,0.3,0,0.7,0.1,1c0.1,0.3,0.2,0.5,0.4,0.7c0.2,0.2,0.5,0.4,0.8,0.5c0.3,0.1,0.8,0.2,1.3,0.2
			c0.5,0,0.8-0.1,1.1-0.2c0.2-0.1,0.5-0.3,0.8-0.6l1.6,0.7c-0.4,0.6-0.9,1.1-1.5,1.4c-0.6,0.3-1.3,0.5-2,0.5c-1.5,0-2.6-0.4-3.4-1.2
			c-0.8-0.8-1.2-1.9-1.2-3.4v-0.2c0-0.2,0-0.3,0-0.4c0-0.1,0-0.3,0-0.4c0-0.6,0.2-1.1,0.4-1.6c0.2-0.5,0.6-0.9,0.9-1.2
			c0.4-0.3,0.8-0.6,1.4-0.8c0.5-0.2,1.1-0.3,1.6-0.3c0.7,0,1.2,0.1,1.7,0.3c0.5,0.2,0.9,0.5,1.3,0.9c0.4,0.4,0.6,0.8,0.8,1.4
			c0.2,0.5,0.3,1.1,0.3,1.8v1H50.3z M50.3,26.9h4.6c0-0.3-0.1-0.5-0.2-0.8c-0.1-0.2-0.3-0.4-0.5-0.6c-0.2-0.2-0.4-0.3-0.7-0.4
			c-0.3-0.1-0.6-0.1-0.9-0.1c-0.3,0-0.6,0-0.9,0.1c-0.3,0.1-0.5,0.2-0.8,0.3c-0.2,0.2-0.4,0.4-0.5,0.6
			C50.3,26.3,50.3,26.5,50.3,26.9z"/>
		<path fill="#343433" d="M70.3,23.2c0.6,0,1.2,0.1,1.7,0.3c0.5,0.2,1,0.5,1.3,1l-1.2,1.2c-0.2-0.2-0.5-0.4-0.8-0.6
			c-0.3-0.1-0.6-0.2-1.1-0.2c-0.5,0-0.9,0.1-1.2,0.2c-0.3,0.1-0.5,0.3-0.5,0.6c0,0.1,0,0.3,0.1,0.4c0.1,0.1,0.2,0.2,0.3,0.3
			c0.1,0.1,0.2,0.1,0.4,0.2c0.1,0,0.3,0.1,0.4,0.1c0.4,0.1,0.9,0.2,1.3,0.4c0.4,0.1,0.9,0.3,1.3,0.4c0.2,0.1,0.4,0.2,0.6,0.4
			c0.2,0.1,0.4,0.3,0.5,0.5c0.1,0.2,0.3,0.4,0.4,0.6c0.1,0.2,0.1,0.5,0.1,0.7c0,0.5-0.1,1-0.3,1.4c-0.2,0.4-0.5,0.7-0.8,0.9
			c-0.4,0.2-0.8,0.4-1.2,0.5c-0.5,0.1-0.9,0.2-1.4,0.2c-0.8,0-1.5-0.1-2.1-0.4c-0.6-0.3-1.2-0.8-1.6-1.5l1.4-0.9
			c0.3,0.4,0.6,0.7,0.9,0.8c0.3,0.2,0.8,0.3,1.4,0.3c1.2,0,1.7-0.3,1.7-1c0-0.3-0.1-0.5-0.4-0.7c-0.2-0.2-0.5-0.3-0.8-0.4
			c-0.4-0.1-0.9-0.2-1.4-0.4c-0.5-0.1-0.9-0.3-1.4-0.5c-0.5-0.2-0.8-0.5-1.1-0.9c-0.3-0.4-0.4-0.8-0.4-1.4c0-0.4,0.1-0.8,0.3-1.1
			c0.2-0.3,0.4-0.6,0.7-0.8c0.3-0.2,0.7-0.4,1.2-0.5C69.2,23.3,69.7,23.2,70.3,23.2z"/>
		<path fill="#343433" d="M78.6,32.6c-1.1,0-2-0.3-2.6-0.8c-0.6-0.5-0.9-1.4-0.9-2.5v-5.6l1.9-0.6v5.7c0,0.3,0,0.6,0,0.8
			c0,0.2,0.1,0.4,0.2,0.6c0.1,0.2,0.3,0.3,0.5,0.4c0.2,0.1,0.5,0.1,0.8,0.1c0.2,0,0.5,0,0.7-0.1c0.2-0.1,0.4-0.2,0.6-0.3
			c0.2-0.1,0.4-0.3,0.6-0.5c0.2-0.2,0.3-0.3,0.5-0.5v-5.7l1.9-0.6v7.2c0,0.5,0,0.8,0.1,1.1c0,0.1,0.1,0.3,0.2,0.5
			c0.1,0.2,0.1,0.3,0.2,0.5h-2.1c-0.1-0.1-0.2-0.3-0.2-0.5C81,31.7,81,31.5,81,31.4c-0.3,0.4-0.7,0.7-1.1,0.9
			C79.5,32.5,79.1,32.6,78.6,32.6z"/>
		<path fill="#343433" d="M87.8,23.2c0.6,0,1.2,0.1,1.7,0.3c0.5,0.2,1,0.5,1.3,1l-1.2,1.2c-0.2-0.2-0.5-0.4-0.8-0.6
			c-0.3-0.1-0.6-0.2-1.1-0.2c-0.5,0-0.9,0.1-1.2,0.2c-0.3,0.1-0.5,0.3-0.5,0.6c0,0.1,0,0.3,0.1,0.4c0.1,0.1,0.2,0.2,0.3,0.3
			c0.1,0.1,0.2,0.1,0.4,0.2c0.1,0,0.3,0.1,0.4,0.1c0.4,0.1,0.9,0.2,1.3,0.4c0.4,0.1,0.9,0.3,1.3,0.4c0.2,0.1,0.4,0.2,0.6,0.4
			c0.2,0.1,0.4,0.3,0.5,0.5c0.1,0.2,0.3,0.4,0.4,0.6c0.1,0.2,0.1,0.5,0.1,0.7c0,0.5-0.1,1-0.3,1.4c-0.2,0.4-0.5,0.7-0.8,0.9
			c-0.4,0.2-0.8,0.4-1.2,0.5c-0.5,0.1-0.9,0.2-1.4,0.2c-0.8,0-1.5-0.1-2.2-0.4c-0.6-0.3-1.2-0.8-1.6-1.5l1.4-0.9
			c0.3,0.4,0.6,0.7,0.9,0.8c0.3,0.2,0.8,0.3,1.4,0.3c1.2,0,1.7-0.3,1.7-1c0-0.3-0.1-0.5-0.4-0.7c-0.2-0.2-0.5-0.3-0.8-0.4
			c-0.4-0.1-0.9-0.2-1.4-0.4c-0.5-0.1-0.9-0.3-1.4-0.5c-0.5-0.2-0.8-0.5-1.1-0.9c-0.2-0.4-0.4-0.8-0.4-1.4c0-0.4,0.1-0.8,0.3-1.1
			c0.2-0.3,0.4-0.6,0.7-0.8c0.3-0.2,0.7-0.4,1.2-0.5C86.8,23.3,87.3,23.2,87.8,23.2z"/>
		<path fill="#343433" d="M65.2,30.9c-0.2,0-0.5,0-0.8-0.4l-2-2.7l3-4.4h-2l-2.6,3.6h-0.7v-8.1l-1.9,0.5v12.9h1.9v-3.9h0.6l2.2,3
			c0.1,0.1,0.2,0.2,0.3,0.4c0.1,0.1,0.2,0.3,0.3,0.4c0.1,0.1,0.3,0.2,0.4,0.3c0.1,0.1,0.3,0.1,0.5,0.1c0.1,0,0.3,0,0.4-0.1
			c0.2,0,0.3-0.1,0.5-0.1L65.2,30.9z"/>
		<g>
			<polygon fill="#343433" points="29.9,23.8 29.9,23.8 29.9,23.8 			"/>
			<path fill="#343433" d="M31.9,23.8c-1,0.1-1.9,0-1.9,0c0,0.2,0,7.2,0,7.3c0,0.5,0.1,1,0.3,1.3h2.2c-0.5-0.7-0.5-1.7-0.5-2.2
				L31.9,23.8z"/>
		</g>
		<path fill="#343433" d="M25.9,19.5v4.1c-0.6-0.2-1.1-0.3-1.7-0.3c-1.5,0-2.7,0.4-3.5,1.1c-0.8,0.8-1.2,1.9-1.2,3.4v0.9
			c0,0.6,0.1,1.1,0.2,1.6c0.2,0.5,0.4,0.9,0.7,1.3c0.3,0.4,0.7,0.6,1.2,0.8c0.5,0.2,1,0.3,1.6,0.3c0.5,0,1-0.1,1.5-0.4
			c0.4-0.2,0.7-0.4,1-0.7c-0.1,0.3-0.2,0.6-0.4,0.8h2.2c0.2-0.4,0.3-0.9,0.3-1.3c0-0.2,0-12.1,0-12.1L25.9,19.5z M25.9,29.2v0.2
			c-0.2,0.2-0.3,0.3-0.5,0.5c-0.2,0.2-0.4,0.3-0.6,0.5c-0.2,0.1-0.5,0.2-0.7,0.3c-0.2,0.1-0.5,0.1-0.7,0.1c-0.4,0-0.7-0.1-0.9-0.2
			c-0.2-0.1-0.4-0.3-0.6-0.6c-0.1-0.2-0.2-0.5-0.3-0.8c0-0.3-0.1-0.6-0.1-1v-0.7c0-0.4,0-0.8,0.1-1.1c0.1-0.3,0.2-0.6,0.4-0.9
			c0.2-0.2,0.5-0.4,0.8-0.6c0.3-0.1,0.7-0.2,1.2-0.2c0.3,0,0.6,0,1,0.1c0.3,0.1,0.6,0.2,0.9,0.3L25.9,29.2L25.9,29.2z"/>
	</g>
	<g>
		<path fill="#3B8841" d="M28.9,2.2c2.8,0,5.1,2.1,5.5,4.7c0,0.1,0,0.2,0,0.4c0,0.1,0,0.3,0,0.4c0,0.4-0.1,0.8-0.1,1.2
			c0.3-0.1,0.6-0.2,0.9-0.2c0.1,0,0.1,0,0.2,0c0.1,0,0.3,0,0.4,0C36,8.9,36.1,9,36.3,9c1,0.4,1.7,1.4,1.7,2.6c0,1.5-1.2,2.8-2.8,2.8
			v0h-5.3v1.9v4.1h0l0,1.7h0l0,0c0,0,0,0,0,0s2.3,0.3,3.6-0.6c1.3-0.9,1.7-3.2,1.7-3.2s-2-0.3-3.4,0.4v-2.5h3.4
			c2.6,0,4.8-2.1,4.8-4.7c0-2.2-1.5-4.1-3.6-4.6c-0.4-3.8-3.6-6.7-7.5-6.7c-3.9,0-7.1,3-7.5,6.7c-2.1,0.5-3.6,2.4-3.6,4.6
			c0,2.6,2.1,4.7,4.8,4.7h3.4v1.5l1.9-0.6v-0.9v-1.7v-0.3h-5.3v0c-1.5,0-2.8-1.2-2.8-2.8c0-1.2,0.7-2.2,1.8-2.6
			c0.2-0.1,0.3-0.1,0.5-0.1c0.2,0,0.4-0.1,0.5-0.1c0,0,0,0,0,0v0c0.1,0,0.2,0,0.3,0c0.2,0,0.4,0.1,0.6,0.2c0,0,0,0,0,0
			c0.7,0.2,1.2,0.7,1.5,1.3l1.7-0.9c-0.7-1.3-1.9-2.2-3.3-2.4C23.9,4.3,26.2,2.2,28.9,2.2z"/>
		<rect x="0.5" y="34.2" fill="#3B8841" width="27.4" height="1.6"/>
		<rect x="29.9" y="34.2" fill="#3B8841" width="61.6" height="1.6"/>
	</g>
</g>
</svg>
